<svg width="1024" height="1024" viewBox="0 0 1024 1024" version="1.1" xmlns="http://www.w3.org/2000/svg" xmlns:xlink="http://www.w3.org/1999/xlink">
<g id="Canvas" transform="translate(517 597)">
<clipPath id="clip-0" clip-rule="evenodd">
<path d="M -721 -597L 719 -597L 719 427L -721 427L -721 -597Z" fill="#FFFFFF"/>
</clipPath>
<g id="Desktop HD" clip-path="url(#clip-0)">
<path d="M -721 -597L 719 -597L 719 427L -721 427L -721 -597Z" fill="#202020"/>
<g id="Road Forward">
<g id="Road">
<use xlink:href="#path0_fill" transform="matrix(-1 -1.22465e-16 1.22465e-16 -1 -113 19)" fill="#333333"/>
</g>
<g id="Road Stripe 3">
<use xlink:href="#path1_fill" transform="matrix(-1 -1.22465e-16 1.22465e-16 -1 -233 -24)" fill="#9C7500"/>
</g>
<g id="Road Stripe 2">
<use xlink:href="#path1_fill" transform="matrix(-1 -1.22465e-16 1.22465e-16 -1 -329 -24)" fill="#9C7500"/>
</g>
<g id="Road Stripe 1">
<use xlink:href="#path1_fill" transform="matrix(-1 -1.22465e-16 1.22465e-16 -1 -425 -24)" fill="#9C7500"/>
</g>
<g id="Direction Forward">
<path d="M -126 -5L -201 -5L -201 -53L -126 -53L -126 -5Z" fill="#333333"/>
<g id="Rectangle 2">
<use xlink:href="#path1_fill" transform="matrix(-1 -1.22465e-16 1.22465e-16 -1 -137 -24)" fill="#BDBDBD"/>
</g>
<g id="Polygon">
<use xlink:href="#path2_fill" transform="matrix(-1.667e-16 1 -1 -1.667e-16 -126 -53)" fill="#BDBDBD"/>
</g>
</g>
</g>
<g id="Road Forward">
<g id="Road">
<use xlink:href="#path0_fill" transform="matrix(1 5.34378e-24 -5.34378e-24 1 103 -181)" fill="#333333"/>
</g>
<g id="Road Stripe 3">
<use xlink:href="#path1_fill" transform="matrix(1 5.34378e-24 -5.34378e-24 1 223 -138)" fill="#9C7500"/>
</g>
<g id="Road Stripe 2">
<use xlink:href="#path1_fill" transform="matrix(1 5.34378e-24 -5.34378e-24 1 319 -138)" fill="#9C7500"/>
</g>
<g id="Road Stripe 1">
<use xlink:href="#path1_fill" transform="matrix(1 5.34378e-24 -5.34378e-24 1 415 -138)" fill="#9C7500"/>
</g>
<g id="Direction Forward">
<path d="M 116 -157L 191 -157L 191 -109L 116 -109L 116 -157Z" fill="#333333"/>
<g id="Rectangle 2">
<use xlink:href="#path1_fill" transform="matrix(1 5.34378e-24 -5.34378e-24 1 127 -138)" fill="#BDBDBD"/>
</g>
<g id="Polygon">
<use xlink:href="#path2_fill" transform="matrix(4.42355e-17 -1 1 4.42355e-17 116 -109)" fill="#BDBDBD"/>
</g>
</g>
</g>
<g id="Road Forward">
<g id="Road">
<use xlink:href="#path0_fill" transform="matrix(1.94723e-16 -1 1 1.94723e-16 -105 -188.63)" fill="#333333"/>
</g>
<g id="Road Stripe 3">
<use xlink:href="#path1_fill" transform="matrix(1.94723e-16 -1 1 1.94723e-16 -62 -308.63)" fill="#9C7500"/>
</g>
<g id="Road Stripe 2">
<use xlink:href="#path1_fill" transform="matrix(1.94723e-16 -1 1 1.94723e-16 -62 -404.63)" fill="#9C7500"/>
</g>
<g id="Road Stripe 1">
<use xlink:href="#path1_fill" transform="matrix(1.94723e-16 -1 1 1.94723e-16 -62 -500.63)" fill="#9C7500"/>
</g>
<g id="Direction Forward">
<path d="M -81 -201.63L -81 -276.63L -33 -276.63L -33 -201.63L -81 -201.63Z" fill="#333333"/>
<g id="Rectangle 2">
<use xlink:href="#path1_fill" transform="matrix(1.94723e-16 -1 1 1.94723e-16 -62 -212.63)" fill="#BDBDBD"/>
</g>
<g id="Polygon">
<use xlink:href="#path2_fill" transform="matrix(-1 -2.38958e-16 2.38958e-16 -1 -33 -201.63)" fill="#BDBDBD"/>
</g>
</g>
</g>
<g id="Road Forward">
<g id="Road">
<use xlink:href="#path0_fill" transform="matrix(-7.2258e-17 1 -1 -7.2258e-17 94.9993 27)" fill="#333333"/>
</g>
<g id="Road Stripe 3">
<use xlink:href="#path1_fill" transform="matrix(-7.2258e-17 1 -1 -7.2258e-17 51.9993 147)" fill="#9C7500"/>
</g>
<g id="Road Stripe 2">
<use xlink:href="#path1_fill" transform="matrix(-7.2258e-17 1 -1 -7.2258e-17 51.9993 243)" fill="#9C7500"/>
</g>
<g id="Road Stripe 1">
<use xlink:href="#path1_fill" transform="matrix(-7.2258e-17 1 -1 -7.2258e-17 51.9993 339)" fill="#9C7500"/>
</g>
<g id="Direction Forward">
<path d="M 70.9993 40L 70.9993 115L 22.9993 115L 22.9993 40L 70.9993 40Z" fill="#333333"/>
<g id="Rectangle 2">
<use xlink:href="#path1_fill" transform="matrix(-7.2258e-17 1 -1 -7.2258e-17 51.9993 51)" fill="#BDBDBD"/>
</g>
<g id="Polygon">
<use xlink:href="#path2_fill" transform="matrix(1 1.16493e-16 -1.16493e-16 1 22.9993 40)" fill="#BDBDBD"/>
</g>
</g>
</g>
<g id="Intersection">
<use xlink:href="#path3_fill" transform="translate(-105 -181)" fill="#333333"/>
</g>
<g id="Road">
<g id="Rectangle">
<use xlink:href="#path0_fill" transform="matrix(-1 -1.22465e-16 1.22465e-16 -1 -113 -85)" fill="#333333"/>
</g>
<g id="Rectangle 2">
<use xlink:href="#path1_fill" transform="matrix(-1 -1.22465e-16 1.22465e-16 -1 -137 -128)" fill="#9C7500"/>
</g>
<g id="Rectangle 2">
<use xlink:href="#path1_fill" transform="matrix(-1 -1.22465e-16 1.22465e-16 -1 -233 -128)" fill="#9C7500"/>
</g>
<g id="Rectangle 2">
<use xlink:href="#path1_fill" transform="matrix(-1 -1.22465e-16 1.22465e-16 -1 -329 -128)" fill="#9C7500"/>
</g>
<g id="Rectangle 2">
<use xlink:href="#path1_fill" transform="matrix(-1 -1.22465e-16 1.22465e-16 -1 -425 -128)" fill="#9C7500"/>
</g>
<g id="Traffic Light">
<g id="Rectangle 5">
<use xlink:href="#path4_fill" transform="matrix(6.12323e-17 -1 1 6.12323e-17 -217 -109)" fill="#4F4F4F"/>
</g>
<g id="Ellipse 2">
<use xlink:href="#path5_fill" transform="matrix(6.12323e-17 -1 1 6.12323e-17 -211 -121)" fill="#EB5757"/>
</g>
<g id="Ellipse 2">
<use xlink:href="#path5_fill" transform="matrix(6.12323e-17 -1 1 6.12323e-17 -181 -121)" fill="#F2C94C"/>
</g>
<g id="Ellipse 2">
<use xlink:href="#path5_fill" transform="matrix(6.12323e-17 -1 1 6.12323e-17 -151 -121)" fill="#219653"/>
</g>
</g>
</g>
<g id="Road">
<g id="Rectangle">
<use xlink:href="#path0_fill" transform="matrix(1 5.34378e-24 -5.34378e-24 1 103 -77)" fill="#333333"/>
</g>
<g id="Rectangle 2">
<use xlink:href="#path1_fill" transform="matrix(1 5.34378e-24 -5.34378e-24 1 127 -34)" fill="#9C7500"/>
</g>
<g id="Rectangle 2">
<use xlink:href="#path1_fill" transform="matrix(1 5.34378e-24 -5.34378e-24 1 223 -34)" fill="#9C7500"/>
</g>
<g id="Rectangle 2">
<use xlink:href="#path1_fill" transform="matrix(1 5.34378e-24 -5.34378e-24 1 319 -34)" fill="#9C7500"/>
</g>
<g id="Rectangle 2">
<use xlink:href="#path1_fill" transform="matrix(1 5.34378e-24 -5.34378e-24 1 415 -34)" fill="#9C7500"/>
</g>
<g id="Traffic Light">
<g id="Rectangle 5">
<use xlink:href="#path4_fill" transform="matrix(6.12323e-17 1 -1 6.12323e-17 207 -53)" fill="#4F4F4F"/>
</g>
<g id="Ellipse 2">
<use xlink:href="#path5_fill" transform="matrix(6.12323e-17 1 -1 6.12323e-17 201 -41)" fill="#EB5757"/>
</g>
<g id="Ellipse 2">
<use xlink:href="#path5_fill" transform="matrix(6.12323e-17 1 -1 6.12323e-17 171 -41)" fill="#F2C94C"/>
</g>
<g id="Ellipse 2">
<use xlink:href="#path5_fill" transform="matrix(6.12323e-17 1 -1 6.12323e-17 141 -41)" fill="#219653"/>
</g>
</g>
</g>
<g id="Road">
<g id="Rectangle">
<use xlink:href="#path0_fill" transform="matrix(6.12323e-17 -1 1 6.12323e-17 -1 -189)" fill="#333333"/>
</g>
<g id="Rectangle 2">
<use xlink:href="#path1_fill" transform="matrix(6.12323e-17 -1 1 6.12323e-17 42 -213)" fill="#9C7500"/>
</g>
<g id="Rectangle 2">
<use xlink:href="#path1_fill" transform="matrix(6.12323e-17 -1 1 6.12323e-17 42 -309)" fill="#9C7500"/>
</g>
<g id="Rectangle 2">
<use xlink:href="#path1_fill" transform="matrix(6.12323e-17 -1 1 6.12323e-17 42 -405)" fill="#9C7500"/>
</g>
<g id="Rectangle 2">
<use xlink:href="#path1_fill" transform="matrix(6.12323e-17 -1 1 6.12323e-17 42 -501)" fill="#9C7500"/>
</g>
<g id="Traffic Light">
<g id="Rectangle 5">
<use xlink:href="#path4_fill" transform="translate(23 -293)" fill="#4F4F4F"/>
</g>
<g id="Ellipse 2">
<use xlink:href="#path5_fill" transform="translate(35 -287)" fill="#EB5757"/>
</g>
<g id="Ellipse 2">
<use xlink:href="#path5_fill" transform="translate(35 -257)" fill="#F2C94C"/>
</g>
<g id="Ellipse 2">
<use xlink:href="#path5_fill" transform="translate(35 -227)" fill="#219653"/>
</g>
</g>
</g>
<g id="Road">
<g id="Rectangle">
<use xlink:href="#path0_fill" transform="matrix(6.12323e-17 1 -1 6.12323e-17 -9 27)" fill="#333333"/>
</g>
<g id="Rectangle 2">
<use xlink:href="#path1_fill" transform="matrix(6.12323e-17 1 -1 6.12323e-17 -52 51)" fill="#9C7500"/>
</g>
<g id="Rectangle 2">
<use xlink:href="#path1_fill" transform="matrix(6.12323e-17 1 -1 6.12323e-17 -52 147)" fill="#9C7500"/>
</g>
<g id="Rectangle 2">
<use xlink:href="#path1_fill" transform="matrix(6.12323e-17 1 -1 6.12323e-17 -52 243)" fill="#9C7500"/>
</g>
<g id="Rectangle 2">
<use xlink:href="#path1_fill" transform="matrix(6.12323e-17 1 -1 6.12323e-17 -52 339)" fill="#9C7500"/>
</g>
<g id="Traffic Light">
<g id="Rectangle 5">
<use xlink:href="#path4_fill" transform="matrix(-1 1.22465e-16 -1.22465e-16 -1 -33 131)" fill="#4F4F4F"/>
</g>
<g id="Ellipse 2">
<use xlink:href="#path5_fill" transform="matrix(-1 1.22465e-16 -1.22465e-16 -1 -45 125)" fill="#EB5757"/>
</g>
<g id="Ellipse 2">
<use xlink:href="#path5_fill" transform="matrix(-1 1.22465e-16 -1.22465e-16 -1 -45 95)" fill="#F2C94C"/>
</g>
<g id="Ellipse 2">
<use xlink:href="#path5_fill" transform="matrix(-1 1.22465e-16 -1.22465e-16 -1 -45 65)" fill="#219653"/>
</g>
</g>
</g>
</g>
</g>
<defs>
<path id="path0_fill" d="M 0 0L 408 0L 408 96L 0 96L 0 0Z"/>
<path id="path1_fill" d="M 0 0L 64 0L 64 10L 0 10L 0 0Z"/>
<path id="path2_fill" d="M 24 0L 44.7846 24L 3.21539 24L 24 0Z"/>
<path id="path3_fill" d="M 0 0L 200 0L 200 200L 0 200L 0 0Z"/>
<path id="path4_fill" d="M 0 0L 48 0L 48 96L 0 96L 0 0Z"/>
<path id="path5_fill" d="M 24 12C 24 18.6274 18.6274 24 12 24C 5.37258 24 0 18.6274 0 12C 0 5.37258 5.37258 0 12 0C 18.6274 0 24 5.37258 24 12Z"/>
</defs>
</svg>
